<svg xmlns="http://www.w3.org/2000/svg" version="1.1" xmlns:xlink="http://www.w3.org/1999/xlink" xmlns:svgjs="http://svgjs.com/svgjs" width="16" height="16"><svg width="16" height="16" viewBox="0 0 16 16" fill="none" xmlns="http://www.w3.org/2000/svg">
<path d="M8 13.28L12.2 2H13.76L9.56 13.28H8Z" fill="black"></path>
<path d="M2 8.89995V7.95195C2 7.45595 2.16 7.05995 2.48 6.76395C2.8 6.46795 3.22 6.31995 3.74 6.31995C4.068 6.31995 4.34 6.37595 4.556 6.48795C4.772 6.59995 4.952 6.73595 5.096 6.89595C5.248 7.05595 5.38 7.21995 5.492 7.38795C5.612 7.54795 5.732 7.68395 5.852 7.79595C5.972 7.89995 6.112 7.95195 6.272 7.95195C6.424 7.95195 6.536 7.90795 6.608 7.81995C6.688 7.72395 6.728 7.59595 6.728 7.43595V6.55995H8V7.50795C8 7.99595 7.84 8.39195 7.52 8.69595C7.208 8.99195 6.788 9.13995 6.26 9.13995C5.932 9.13995 5.66 9.08395 5.444 8.97195C5.228 8.85995 5.044 8.72395 4.892 8.56395C4.748 8.40395 4.616 8.24395 4.496 8.08395C4.384 7.91595 4.268 7.77995 4.148 7.67595C4.028 7.56395 3.888 7.50795 3.728 7.50795C3.584 7.50795 3.472 7.55195 3.392 7.63995C3.312 7.72795 3.272 7.85595 3.272 8.02395V8.89995H2Z" fill="black"></path>
</svg><style>@media (prefers-color-scheme: light) { :root { filter: none; } }
@media (prefers-color-scheme: dark) { :root { filter: invert(100%); } }
</style></svg>